Coordinates
version=1
nRows=13
nColumns=40
inDegrees=yes

Units are S.I. units (second, meters, Newtons, ...)
Angles are in degrees.

endheader
time	pelvis_tilt	pelvis_list	pelvis_rotation	pelvis_tx	pelvis_ty	pelvis_tz	hip_flexion_r	hip_adduction_r	hip_rotation_r	knee_angle_r	knee_angle_r_beta	ankle_angle_r	subtalar_angle_r	mtp_angle_r	hip_flexion_l	hip_adduction_l	hip_rotation_l	knee_angle_l	knee_angle_l_beta	ankle_angle_l	subtalar_angle_l	mtp_angle_l	lumbar_extension	lumbar_bending	lumbar_rotation	arm_flex_r	arm_add_r	arm_rot_r	elbow_flex_r	pro_sup_r	wrist_flex_r	wrist_dev_r	arm_flex_l	arm_add_l	arm_rot_l	elbow_flex_l	pro_sup_l	wrist_flex_l	wrist_dev_l
      0.66000000	     -8.21268683	     -3.16240302	     -3.37689258	      0.37825671	      0.87707677	      0.26804626	      4.16843372	      5.55491940	     -3.90394912	    -33.75260969	     -0.58909417	      1.73690216	     -3.26442368	     -8.17099535	     38.24260095	      2.66839459	      2.86146880	    -72.45477343	     -1.26457436	     -1.82460655	      9.36202420	    -13.84711925	     -2.10086025	      3.71103079	      7.77020949	     -4.29866001	    -23.02713923	     11.36838832	    104.98504368	     89.95437384	      0.00000000	      0.00000000	    -26.95357671	     20.26314299	     -6.17463374	     96.07148658	     89.95437384	      0.00000000	      0.00000000
      0.67000000	     -8.73115899	     -2.39725809	     -3.50645995	      0.41343361	      0.88315273	      0.26937797	      1.92714833	      4.38444373	     -4.40114851	    -31.71297615	     -0.55349585	     -3.19549938	     -2.70697999	     -7.07471564	     39.79191976	      1.72800662	      3.32782508	    -67.59509706	     -1.17975700	     -2.26229537	      9.72542608	    -13.41956046	     -1.17781093	      2.72085052	      9.07702677	     -4.05972272	    -22.37794781	     10.93805794	    107.11644685	     89.95437384	      0.00000000	      0.00000000	    -29.48767991	     21.54950490	     -5.42869486	     98.02495605	     89.95437384	      0.00000000	      0.00000000
      0.68000000	     -8.47682345	     -1.45164238	     -3.47035560	      0.45028221	      0.89018349	      0.27012418	     -1.40300331	      2.85531237	     -5.51354346	    -28.97679038	     -0.50574040	     -9.27610137	     -2.43245210	     -5.09692682	     39.88343599	      0.39327888	      3.81694951	    -61.97483306	     -1.08166489	     -3.15804618	     10.92153887	    -12.66917836	     -0.95538934	      1.51095903	     10.01329226	     -3.79384606	    -21.61885877	     10.70575920	    109.10361858	     89.95437384	      0.00000000	      0.00000000	    -32.14593467	     22.67023672	     -4.55876996	     99.90508816	     89.95437384	      0.00000000	      0.00000000
      0.69000000	     -8.99404713	     -0.51066301	     -3.70848441	      0.48618476	      0.89578424	      0.27125556	     -3.39344990	      1.44054274	     -6.29303257	    -26.65964089	     -0.46529851	    -16.02799456	     -2.02274792	     -3.33212278	     40.63457408	     -0.58532769	      4.57223617	    -55.98289624	     -0.97708586	     -4.98041800	     11.49309579	    -11.65912297	      0.08473865	      0.36329993	     11.06457913	     -3.56848677	    -21.02578737	     10.81575771	    110.86092295	     89.95437384	      0.00000000	      0.00000000	    -34.86635113	     23.59764745	     -3.28708112	    101.75076350	     89.95437384	      0.00000000	      0.00000000
      0.70000000	     -8.98189148	      0.38473004	     -3.82534758	      0.52280416	      0.90158223	      0.27229216	     -5.97390166	      0.02571020	     -7.66503291	    -24.07867722	     -0.42025220	    -22.98239423	     -2.28304979	     -0.97815579	     40.33562419	     -1.70304588	      5.05651022	    -49.43939251	     -0.86288018	     -7.47297861	     12.39425219	    -10.10811901	      0.59048471	     -0.76040497	     11.83450206	     -3.28717064	    -20.47965518	     11.12711736	    112.44957416	     89.95437384	      0.00000000	      0.00000000	    -37.62125832	     24.39253226	     -1.83264428	    103.53827653	     89.95437384	      0.00000000	      0.00000000
      0.71000000	     -8.88722361	      0.92943614	     -3.76500711	      0.55938069	      0.90691939	      0.27317213	     -8.46964113	     -0.81040221	     -8.41330907	    -22.08716990	     -0.38549384	    -25.56037881	     -0.70088272	     19.16931872	     39.76863315	     -2.71021638	      4.83501740	    -43.00452830	     -0.75057061	     -8.67434286	     10.90137388	      5.07675403	      0.94437847	     -1.50225529	     12.25296730	     -3.00186442	    -20.11408123	     11.75243462	    113.88054255	     89.95437384	      0.00000000	      0.00000000	    -40.35156359	     24.92556741	     -0.26284094	    105.27666560	     89.95437384	      0.00000000	      0.00000000
      0.72000000	     -9.17005797	      1.27552285	     -3.90617807	      0.59569266	      0.91052091	      0.27443427	    -10.16371043	     -1.45143103	     -9.13325834	    -20.70892921	     -0.36143900	    -29.86062349	     -1.48149577	     19.88090095	     39.37757880	     -3.27221171	      4.60653795	    -36.30105356	     -0.63357291	    -12.47084709	     10.81937627	      6.75277277	      1.74314131	     -1.96660662	     12.73382559	     -2.76361718	    -19.85806828	     12.45770685	    115.11356144	     89.95437384	      0.00000000	      0.00000000	    -43.14784390	     25.34224145	      1.34203024	    106.99755951	     89.95437384	      0.00000000	      0.00000000
      0.73000000	     -9.50545930	      1.29624973	     -3.99092217	      0.63180726	      0.91289060	      0.27562038	    -11.31923978	     -1.66519652	     -9.63680831	    -20.41392475	     -0.35629020	    -32.39972898	     -2.70816549	     20.31993880	     38.94021264	     -3.49669647	      4.24027831	    -29.83556910	     -0.52072891	    -15.93614831	     10.27843367	      8.32052342	      2.54428521	     -2.04832743	     12.98509933	     -2.51906299	    -19.83477525	     13.46057766	    116.16931877	     89.95437384	      0.00000000	      0.00000000	    -45.88399416	     25.54477096	      2.92252422	    108.64412048	     89.95437384	      0.00000000	      0.00000000
      0.74000000	     -9.77165021	      1.08076813	     -3.92740430	      0.66762940	      0.91400451	      0.27637309	    -12.11272908	     -1.51504215	    -10.03917425	    -21.12277356	     -0.36866195	    -33.73843551	     -5.67277155	     21.10986218	     38.36167816	     -3.63054564	      3.64917225	    -23.97998047	     -0.41852961	    -17.36889294	     10.06752159	     11.25851101	      3.16248839	     -1.85645552	     12.89471348	     -2.17930390	    -20.08730175	     14.70395110	    117.12150405	     89.95437384	      0.00000000	      0.00000000	    -48.56804912	     25.49282844	      4.54164015	    110.28188235	     89.95437384	      0.00000000	      0.00000000
      0.75000000	    -10.19458483	      0.64443064	     -3.85690701	      0.70265142	      0.91349565	      0.27702635	    -12.11696499	     -1.13170749	    -10.06128008	    -23.26748328	     -0.40609419	    -32.90083150	     -8.05847354	     21.32530207	     38.29169613	     -3.29184969	      4.42064359	    -19.42009323	     -0.33894457	    -17.15399061	      9.40333417	     12.16782653	      3.82441329	     -1.40649206	     12.63495963	     -1.82455743	    -20.44355426	     15.93109887	    117.88379382	     89.95437384	      0.00000000	      0.00000000	    -50.97027839	     25.28328040	      6.05366570	    111.80788449	     89.95437384	      0.00000000	      0.00000000
      0.76000000	    -10.49007338	      0.07172438	     -3.69140435	      0.73709001	      0.91206770	      0.27743221	    -11.91822552	     -0.42843083	     -9.18822789	    -26.01638373	     -0.45407156	    -31.23106785	    -10.33313037	     21.45312967	     38.18082257	     -2.88840083	      5.73429594	    -15.85570685	     -0.27673429	    -16.21464479	      9.01479691	     12.67685383	      4.22463900	     -0.80961925	     12.18503383	     -1.45016032	    -20.92799152	     17.21959570	    118.33774302	     89.95437384	      0.00000000	      0.00000000	    -52.87883399	     25.06038667	      7.24947179	    113.14589842	     89.95437384	      0.00000000	      0.00000000
      0.77000000	    -10.77396230	     -0.58490975	     -3.56360793	      0.77096213	      0.90972737	      0.27772496	    -11.27263806	      0.50139691	     -7.67598080	    -29.47867904	     -0.51450001	    -29.50150703	    -12.86573038	     22.59408719	     38.41493570	     -2.21997978	      8.08121762	    -13.83342331	     -0.24143878	    -16.37239722	      7.13523871	     13.94760465	      4.52683117	     -0.10064070	     11.75206579	     -1.23406333	    -21.49229118	     18.39403454	    118.43514431	     89.95437384	      0.00000000	      0.00000000	    -54.12892384	     24.91003703	      8.00532568	    114.17725073	     89.95437384	      0.00000000	      0.00000000
      0.78000000	    -10.74875587	     -1.00185061	     -3.31652659	      0.80450794	      0.90691314	      0.27756440	    -10.46486858	      1.07170880	     -6.52278056	    -33.63984447	     -0.58712605	    -28.06660104	    -14.34279879	     22.82936283	     38.29035920	     -1.95524692	      9.78270843	    -12.69137542	     -0.22150629	    -17.58609575	      4.98090905	     13.91550754	      4.42227669	      0.31304287	     11.13928067	     -1.04494749	    -22.04009659	     19.51165647	    118.08628694	     89.95437384	      0.00000000	      0.00000000	    -54.75021982	     24.95081122	      8.35087665	    114.99641307	     89.95437384	      0.00000000	      0.00000000
